<svg width="20" height="20" viewBox="0 0 20 20" fill="none" xmlns="http://www.w3.org/2000/svg">
<rect width="19.8621" height="19.8621" fill="white"/>
<path fill-rule="evenodd" clip-rule="evenodd" d="M19.0675 10.1473C19.0675 9.47247 19.007 8.82357 18.8945 8.20062H9.93097V11.8821H15.053C14.8323 13.0717 14.1618 14.0797 13.1539 14.7545V17.1425H16.2297C18.0293 15.4856 19.0675 13.0458 19.0675 10.1473Z" fill="#4285F4"/>
<path fill-rule="evenodd" clip-rule="evenodd" d="M9.93092 19.4481C12.5006 19.4481 14.6549 18.5959 16.2296 17.1423L13.1538 14.7544C12.3016 15.3254 11.2114 15.6628 9.93092 15.6628C7.45211 15.6628 5.35399 13.9887 4.60559 11.7391H1.42596V14.205C2.99198 17.3154 6.21054 19.4481 9.93092 19.4481Z" fill="#34A853"/>
<path fill-rule="evenodd" clip-rule="evenodd" d="M4.60567 11.7394C4.41532 11.1683 4.30717 10.5584 4.30717 9.93109C4.30717 9.30382 4.41532 8.69385 4.60567 8.12281V5.65698H1.42605C0.781469 6.94181 0.413757 8.39535 0.413757 9.93109C0.413757 11.4668 0.781469 12.9204 1.42605 14.2052L4.60567 11.7394Z" fill="#FBBC05"/>
<path fill-rule="evenodd" clip-rule="evenodd" d="M9.93092 4.19908C11.3282 4.19908 12.5828 4.67927 13.5691 5.62234L16.2988 2.89263C14.6506 1.35689 12.4962 0.413818 9.93092 0.413818C6.21054 0.413818 2.99198 2.54655 1.42596 5.65695L4.60559 8.12278C5.35399 5.87325 7.45211 4.19908 9.93092 4.19908Z" fill="#EA4335"/>
</svg>
